<svg xmlns="http://www.w3.org/2000/svg" viewBox="0 0 604.88 150.68" role="img">
<title>FirstMerge</title>
<g transform="translate(11.15,11.15) scale(1.1617)"><g fill="none" stroke="#5B4FE3" stroke-width="9" stroke-linecap="round" stroke-linejoin="round">
<path d="M30,41 C30,63 38,58 50,58"/>
<path d="M70,41 C70,63 62,58 50,58"/>
<path d="M50,58 L50,68"/>
<circle cx="30" cy="30" r="11"/>
<circle cx="70" cy="30" r="11"/>
</g>
<circle cx="50" cy="82" r="14" fill="#FF6240"/></g>
<path d="M184.01,40.22L184.01,51.18L161.12,51.18L161.12,63.02L178.25,63.02L178.25,73.65L161.12,73.65L161.12,96.38L147.45,96.38L147.45,40.22L184.01,40.22ZM198.08,47.10Q194.48,47.10 192.19,44.98Q189.92,42.85 189.92,39.74Q189.92,36.54 192.19,34.43Q194.48,32.30 198.08,32.30Q201.61,32.30 203.88,34.43Q206.17,36.54 206.17,39.74Q206.17,42.85 203.88,44.98Q201.61,47.10 198.08,47.10ZM204.88,51.74L204.88,96.38L191.21,96.38L191.21,51.74L204.88,51.74ZM228.48,59.18Q230.88,55.50 234.48,53.38Q238.08,51.25 242.48,51.25L242.48,65.74L238.72,65.74Q233.61,65.74 231.04,67.94Q228.48,70.14 228.48,75.65L228.48,96.38L214.81,96.38L214.81,51.74L228.48,51.74L228.48,59.18ZM267.21,97.02Q261.36,97.02 256.80,95.02Q252.25,93.02 249.60,89.54Q246.96,86.05 246.65,81.74L260.16,81.74Q260.41,84.05 262.32,85.50Q264.25,86.94 267.05,86.94Q269.61,86.94 271.01,85.94Q272.41,84.94 272.41,83.34Q272.41,81.42 270.41,80.50Q268.41,79.58 263.92,78.45Q259.12,77.34 255.92,76.10Q252.72,74.85 250.40,72.18Q248.08,69.50 248.08,64.94Q248.08,61.10 250.20,57.94Q252.32,54.78 256.43,52.94Q260.56,51.10 266.25,51.10Q274.65,51.10 279.48,55.27Q284.32,59.42 285.05,66.30L272.41,66.30Q272.08,63.98 270.36,62.62Q268.65,61.25 265.85,61.25Q263.45,61.25 262.16,62.18Q260.88,63.10 260.88,64.70Q260.88,66.62 262.92,67.58Q264.96,68.54 269.28,69.50Q274.25,70.78 277.36,72.02Q280.48,73.25 282.85,76.02Q285.21,78.78 285.28,83.42Q285.28,87.34 283.08,90.43Q280.88,93.50 276.76,95.27Q272.65,97.02 267.21,97.02ZM318.56,84.78L318.56,96.38L311.60,96.38Q304.16,96.38 300.00,92.74Q295.85,89.10 295.85,80.85L295.85,63.10L290.40,63.10L290.40,51.74L295.85,51.74L295.85,40.85L309.52,40.85L309.52,51.74L318.49,51.74L318.49,63.10L309.52,63.10L309.52,81.02Q309.52,83.02 310.49,83.90Q311.45,84.78 313.69,84.78L318.56,84.78Z" fill="#16141F"/>
<path d="M387.12,40.22L387.12,96.38L373.44,96.38L373.44,62.70L360.89,96.38L349.84,96.38L337.20,62.62L337.20,96.38L323.52,96.38L323.52,40.22L339.69,40.22L355.44,79.10L371.04,40.22L387.12,40.22ZM439.04,73.34Q439.04,75.25 438.80,77.34L407.84,77.34Q408.16,81.50 410.51,83.70Q412.88,85.90 416.33,85.90Q421.44,85.90 423.44,81.58L438.00,81.58Q436.88,85.98 433.95,89.50Q431.04,93.02 426.64,95.02Q422.24,97.02 416.80,97.02Q410.24,97.02 405.11,94.22Q400.00,91.42 397.11,86.22Q394.24,81.02 394.24,74.05Q394.24,67.10 397.08,61.90Q399.93,56.70 405.04,53.90Q410.16,51.10 416.80,51.10Q423.28,51.10 428.31,53.83Q433.36,56.54 436.20,61.58Q439.04,66.62 439.04,73.34ZM425.04,69.74Q425.04,66.22 422.64,64.14Q420.24,62.05 416.64,62.05Q413.20,62.05 410.84,64.05Q408.48,66.05 407.93,69.74L425.04,69.74ZM459.92,59.18Q462.32,55.50 465.92,53.38Q469.52,51.25 473.92,51.25L473.92,65.74L470.16,65.74Q465.04,65.74 462.48,67.94Q459.92,70.14 459.92,75.65L459.92,96.38L446.24,96.38L446.24,51.74L459.92,51.74L459.92,59.18ZM497.45,51.10Q502.16,51.10 505.72,53.03Q509.28,54.94 511.20,58.05L511.20,51.74L524.88,51.74L524.88,96.30Q524.88,102.45 522.43,107.45Q520.00,112.45 515.00,115.42Q510.00,118.38 502.56,118.38Q492.65,118.38 486.48,113.69Q480.32,109.02 479.45,101.02L492.96,101.02Q493.60,103.58 496.00,105.05Q498.40,106.54 501.92,106.54Q506.16,106.54 508.67,104.09Q511.20,101.65 511.20,96.30L511.20,89.98Q509.20,93.10 505.67,95.07Q502.16,97.02 497.45,97.02Q491.92,97.02 487.43,94.18Q482.96,91.34 480.36,86.10Q477.76,80.85 477.76,73.98Q477.76,67.10 480.36,61.90Q482.96,56.70 487.43,53.90Q491.92,51.10 497.45,51.10ZM511.20,74.05Q511.20,68.94 508.36,65.98Q505.52,63.02 501.45,63.02Q497.36,63.02 494.52,65.94Q491.68,68.85 491.68,73.98Q491.68,79.10 494.52,82.10Q497.36,85.10 501.45,85.10Q505.52,85.10 508.36,82.14Q511.20,79.18 511.20,74.05ZM576.88,73.34Q576.88,75.25 576.64,77.34L545.68,77.34Q546.00,81.50 548.35,83.70Q550.72,85.90 554.17,85.90Q559.28,85.90 561.28,81.58L575.84,81.58Q574.72,85.98 571.79,89.50Q568.88,93.02 564.48,95.02Q560.08,97.02 554.64,97.02Q548.08,97.02 542.95,94.22Q537.84,91.42 534.95,86.22Q532.08,81.02 532.08,74.05Q532.08,67.10 534.92,61.90Q537.77,56.70 542.88,53.90Q548.00,51.10 554.64,51.10Q561.12,51.10 566.15,53.83Q571.20,56.54 574.04,61.58Q576.88,66.62 576.88,73.34ZM562.88,69.74Q562.88,66.22 560.48,64.14Q558.08,62.05 554.48,62.05Q551.04,62.05 548.68,64.05Q546.32,66.05 545.77,69.74L562.88,69.74Z" fill="#5B4FE3"/>
</svg>